<?xml version="1.0" encoding="UTF-8" standalone="no"?>
<!-- Created with Inkscape (http://www.inkscape.org/) -->

<svg
   width="200mm"
   height="300mm"
   viewBox="0 0 200 300"
   version="1.1"
   id="svg5"
   xmlns="http://www.w3.org/2000/svg"
   xmlns:svg="http://www.w3.org/2000/svg">
  <defs
     id="defs2" />
  <g
     id="layer1"
     transform="translate(-210)">
    <path
       id="rect236-2"
       style="vector-effect:non-scaling-stroke;fill:none;stroke:#000000;stroke-width:0.265151;stroke-linecap:round;stroke-linejoin:bevel;stroke-miterlimit:2.4;stroke-dasharray:none;-inkscape-stroke:hairline;paint-order:fill markers stroke"
       d="m 239.99975,129.99955 v 20.00033 h 2.99982 v 19.99981 h -2.99982 v 19.99982 h 2.99982 v 20.00033 h -2.99982 v 19.99981 h 2.99982 v 19.99981 h -2.99982 v 20.00033 h 19.99982 v -3.00033 h 19.99981 v 3.00033 h 20.00033 v -3.00033 h 19.99981 v 3.00033 h 19.99981 v -3.00033 h 20.00033 v 3.00033 h 19.99982 v -20.00033 h -2.99982 v -19.99981 h 2.99982 v -19.99981 h -2.99982 v -20.00033 h 2.99982 v -19.99982 h -2.99982 v -19.99981 h 2.99982 v -20.00033 h -19.99982 v 3.00034 h -20.00033 v -3.00034 h -19.99981 v 3.00034 h -19.99981 v -3.00034 h -20.00033 v 3.00034 h -19.99981 v -3.00034 z" />
    <path
       id="rect236-18-87-0-3"
       style="vector-effect:non-scaling-stroke;fill:none;stroke:#000000;stroke-width:0.0501086;stroke-linecap:round;stroke-linejoin:bevel;stroke-miterlimit:2.4;stroke-dasharray:none;-inkscape-stroke:hairline;paint-order:fill markers stroke"
       d="m 357.50027,38.057994 v 3.00033 h -2.99982 v 9.9999 h 2.99982 v 6.99957 h 7.4998 v 2.99982 h 20.00033 v -2.99982 h 7.4998 v -6.99957 h 2.99982 v -9.9999 h -2.99982 v -3.00033 h -9.50018 v 16.99998 h -16.00007 v -16.99998 z" />
    <path
       id="rect236-18-87-0-1-0"
       style="vector-effect:non-scaling-stroke;fill:none;stroke:#000000;stroke-width:0.0501086;stroke-linecap:round;stroke-linejoin:bevel;stroke-miterlimit:2.4;stroke-dasharray:none;-inkscape-stroke:hairline;paint-order:fill markers stroke"
       d="m 357.50028,15.058364 v 3.00033 h -2.99982 v 9.99991 h 2.99982 v 6.99957 h 7.4998 v 2.99982 h 20.00033 v -2.99982 h 7.4998 v -6.99957 h 2.99981 v -9.99991 h -2.99981 v -3.00033 h -9.5002 v 16.99999 h -16.00005 v -16.99999 z" />
    <path
       id="rect236-18-7-0-0"
       style="vector-effect:non-scaling-stroke;fill:none;stroke:#000000;stroke-width:0.116441;stroke-linecap:round;stroke-linejoin:bevel;stroke-miterlimit:2.4;-inkscape-stroke:hairline;paint-order:fill markers stroke"
       d="m 239.99982,269.99954 v 7.00009 h 2.99982 v 9.99991 h -2.99982 v 10.00042 L 300,297 l 10e-5,-7.00009 c 5e-5,-5.52277 4.47713,-9.99985 9.9999,-9.99991 5.52298,-2.4e-4 10.00038,4.47693 10.00043,9.99991 L 320,297 l 59.99954,-4e-5 v -10.00042 h -2.99981 v -9.99991 h 2.99981 v -7.00009" />
    <path
       id="rect236-18-7-0-4-7-3-8-8"
       style="vector-effect:non-scaling-stroke;fill:none;stroke:#000000;stroke-width:0.113919;stroke-linecap:round;stroke-linejoin:bevel;stroke-miterlimit:2.4;stroke-dasharray:none;-inkscape-stroke:hairline;paint-order:fill markers stroke"
       d="m 379.99973,266.99976 h 7.00009 v 2.99982 h 9.9999 v -2.99982 h 9.99991 V 132.99967 h -9.99991 v -2.99981 h -9.9999 v 2.99981 h -7.00009" />
    <path
       id="rect236-18-7-0-4-7-3-8-8-0"
       style="vector-effect:non-scaling-stroke;fill:none;stroke:#000000;stroke-width:0.113919;stroke-linecap:round;stroke-linejoin:bevel;stroke-miterlimit:2.4;stroke-dasharray:none;-inkscape-stroke:hairline;paint-order:fill markers stroke"
       d="m 239.99975,266.99987 h -7.00009 v 2.99982 h -9.99991 v -2.99982 h -9.99991 V 132.99979 h 9.99991 v -2.99981 h 9.99991 v 2.99981 h 7.00009" />
    <path
       id="rect236-1-4-4-8"
       style="vector-effect:non-scaling-stroke;fill:none;stroke:#000000;stroke-width:0.113636;stroke-linecap:round;stroke-linejoin:bevel;stroke-miterlimit:2.4;stroke-dasharray:none;-inkscape-stroke:hairline;paint-order:fill markers stroke"
       d="m 285.00011,66.000108 h 59.99996 v -21.99969 a 8,8 0 0 1 -8.00003,-8.00003 8,8 0 0 1 8.00003,-8.00003 V 6.0001479 h -59.99996 z" />
    <rect
       style="vector-effect:non-scaling-stroke;fill:none;stroke:#000000;stroke-width:0.113636;stroke-linecap:round;stroke-linejoin:bevel;stroke-miterlimit:2.4;stroke-dasharray:none;-inkscape-stroke:hairline;paint-order:fill markers stroke"
       id="rect236-1-4-4-8-8"
       width="60"
       height="60"
       x="344.99997"
       y="6" />
    <rect
       style="vector-effect:non-scaling-stroke;fill:none;stroke:#000000;stroke-width:0.0776281;stroke-linecap:round;stroke-linejoin:bevel;stroke-miterlimit:2.4;stroke-dasharray:none;-inkscape-stroke:hairline;paint-order:fill markers stroke"
       id="rect236-1-4-4-9-2-6"
       width="35"
       height="48.000004"
       x="249.99998"
       y="54" />
    <rect
       style="vector-effect:non-scaling-stroke;fill:none;stroke:#000000;stroke-width:0.0776278;stroke-linecap:round;stroke-linejoin:bevel;stroke-miterlimit:2.4;stroke-dasharray:none;-inkscape-stroke:hairline;paint-order:fill markers stroke"
       id="rect236-1-4-4-9-2-8-7"
       width="35"
       height="47.999828"
       x="249.99973"
       y="6.0001698" />
    <path
       id="rect236-1-4-4-9-2-6-7"
       style="vector-effect:non-scaling-stroke;fill:none;stroke:#000000;stroke-width:0.0743232;stroke-linecap:round;stroke-linejoin:bevel;stroke-miterlimit:2.4;stroke-dasharray:none;-inkscape-stroke:hairline;paint-order:fill markers stroke"
       d="M 215,53.999999 215.00007,102 H 250 l -7e-5,-48.000001 h -9.50019 c 2e-5,4.418301 -3.58173,8.000047 -8.00003,8.00003 -4.4183,1.7e-5 -8.00005,-3.581729 -8.00003,-8.00003 z" />
    <path
       id="rect236-1-4-4-9-2-6-7-7"
       style="vector-effect:non-scaling-stroke;fill:none;stroke:#000000;stroke-width:0.0743232;stroke-linecap:round;stroke-linejoin:bevel;stroke-miterlimit:2.4;stroke-dasharray:none;-inkscape-stroke:hairline;paint-order:fill markers stroke"
       d="M 215,5.9999999 V 53.999999 h 9.49968 c -2e-5,-4.418301 3.58173,-8.000046 8.00003,-8.00003 4.4183,-1.6e-5 8.00004,3.581729 8.00003,8.00003 h 9.50019 V 5.9999999 Z" />
    <rect
       style="vector-effect:non-scaling-stroke;fill:none;stroke:#000000;stroke-width:0.100003;stroke-linecap:round;stroke-linejoin:bevel;stroke-miterlimit:2.4;-inkscape-stroke:hairline;paint-order:fill markers stroke"
       id="rect741-4-6-0"
       width="20"
       height="3.0000026"
       x="259.99969"
       y="193" />
    <rect
       style="vector-effect:non-scaling-stroke;fill:none;stroke:#000000;stroke-width:0.100003;stroke-linecap:round;stroke-linejoin:bevel;stroke-miterlimit:2.4;-inkscape-stroke:hairline;paint-order:fill markers stroke"
       id="rect741-7-5-8"
       width="20"
       height="3.0000026"
       x="299.99969"
       y="193" />
    <rect
       style="vector-effect:non-scaling-stroke;fill:none;stroke:#000000;stroke-width:0.100003;stroke-linecap:round;stroke-linejoin:bevel;stroke-miterlimit:2.4;-inkscape-stroke:hairline;paint-order:fill markers stroke"
       id="rect741-4-3-7-2-2"
       width="20"
       height="3.0000026"
       x="349.5"
       y="216" />
    <rect
       style="vector-effect:non-scaling-stroke;fill:none;stroke:#000000;stroke-width:0.100003;stroke-linecap:round;stroke-linejoin:bevel;stroke-miterlimit:2.4;-inkscape-stroke:hairline;paint-order:fill markers stroke"
       id="rect741-4-3-7-2-2-4"
       width="20"
       height="3.0000026"
       x="349.49976"
       y="180.99979" />
    <g
       id="g2565"
       transform="rotate(-90,326.64392,340.18503)">
      <rect
         style="vector-effect:non-scaling-stroke;fill:none;stroke:#000000;stroke-width:0.100003;stroke-linecap:round;stroke-linejoin:bevel;stroke-miterlimit:2.4;-inkscape-stroke:hairline;paint-order:fill markers stroke"
         id="rect741-4-6-3"
         width="20"
         height="3.0000026"
         x="416.82895"
         y="352.54111" />
      <rect
         style="vector-effect:non-scaling-stroke;fill:none;stroke:#000000;stroke-width:0.100003;stroke-linecap:round;stroke-linejoin:bevel;stroke-miterlimit:2.4;-inkscape-stroke:hairline;paint-order:fill markers stroke"
         id="rect741-7-5-1"
         width="20"
         height="3.0000026"
         x="456.82895"
         y="352.54111" />
      <rect
         style="vector-effect:non-scaling-stroke;fill:none;stroke:#000000;stroke-width:0.100003;stroke-linecap:round;stroke-linejoin:bevel;stroke-miterlimit:2.4;-inkscape-stroke:hairline;paint-order:fill markers stroke"
         id="rect741-4-3-7-2-6"
         width="20"
         height="3.0000026"
         x="496.82895"
         y="352.54111" />
    </g>
    <rect
       style="vector-effect:non-scaling-stroke;fill:none;stroke:#000000;stroke-width:0.100003;stroke-linecap:round;stroke-linejoin:bevel;stroke-miterlimit:2.4;-inkscape-stroke:hairline;paint-order:fill markers stroke"
       id="rect741-4-3-7-8-3-8"
       width="20"
       height="3.0000026"
       x="150"
       y="-306"
       transform="rotate(90)" />
    <rect
       style="vector-effect:non-scaling-stroke;fill:none;stroke:#000000;stroke-width:0.187088;stroke-linecap:round;stroke-linejoin:bevel;stroke-miterlimit:2.4;-inkscape-stroke:hairline;paint-order:fill markers stroke"
       id="rect1122-0"
       width="10"
       height="3"
       x="277"
       y="-342"
       transform="rotate(90)" />
    <path
       id="rect236-18-7-0-0-9"
       style="vector-effect:non-scaling-stroke;fill:none;stroke:#000000;stroke-width:0.116441;stroke-linecap:round;stroke-linejoin:bevel;stroke-miterlimit:2.4;-inkscape-stroke:hairline;paint-order:fill markers stroke"
       d="m 240.00001,129.99978 v -7.00009 h 2.99982 v -9.9999 h -2.99982 v -10.00043 h 139.99973 v 10.00043 h -2.99982 v 9.9999 h 2.99982 v 7.00009" />
    <rect
       style="vector-effect:non-scaling-stroke;fill:none;stroke:#000000;stroke-width:0.187092;stroke-linecap:round;stroke-linejoin:bevel;stroke-miterlimit:2.4;-inkscape-stroke:hairline;paint-order:fill markers stroke"
       id="rect1122-0-2"
       width="9.9995737"
       height="3.0002408"
       x="-122.99957"
       y="-342"
       transform="matrix(0,-1,-1,0,0,0)" />
    <g
       id="g1662"
       transform="translate(47.999194,-106.99998)">
      <path
         id="rect236-18-8-0-6-4-1"
         style="vector-effect:non-scaling-stroke;fill:none;stroke:#000000;stroke-width:0.0829878;stroke-linecap:round;stroke-linejoin:bevel;stroke-miterlimit:2.4;stroke-dasharray:none;-inkscape-stroke:hairline;paint-order:fill markers stroke"
         d="M 243.00019,172.99967 V 176 h -2.99981 v 9.99991 h 2.99981 V 193 h 17 v 2.99982 H 280 V 193 h 19.99982 v 2.99982 h 20.00033 V 193 h 19.00039 v -7.00009 h 2.99981 V 176 h -2.99981 v -3.00033 z" />
      <rect
         style="vector-effect:non-scaling-stroke;fill:none;stroke:#000000;stroke-width:0.187092;stroke-linecap:round;stroke-linejoin:bevel;stroke-miterlimit:2.4;-inkscape-stroke:hairline;paint-order:fill markers stroke"
         id="rect1122-0-2-2"
         width="9.9995737"
         height="3.0002408"
         x="-185.99957"
         y="-306"
         transform="matrix(0,-1,-1,0,0,0)" />
    </g>
    <rect
       style="vector-effect:non-scaling-stroke;fill:none;stroke:#000000;stroke-width:0.187088;stroke-linecap:round;stroke-linejoin:bevel;stroke-miterlimit:2.4;-inkscape-stroke:hairline;paint-order:fill markers stroke"
       id="rect1122-0-2-0"
       width="10"
       height="3"
       x="-123"
       y="-306"
       transform="matrix(0,-1,-1,0,0,0)" />
    <rect
       style="vector-effect:non-scaling-stroke;fill:none;stroke:#000000;stroke-width:0.264583;stroke-linecap:round;stroke-linejoin:bevel;stroke-miterlimit:2.4;-inkscape-stroke:hairline;paint-order:fill markers stroke"
       id="rect2900"
       width="10"
       height="3"
       x="387"
       y="181" />
    <rect
       style="vector-effect:non-scaling-stroke;fill:none;stroke:#000000;stroke-width:0.264583;stroke-linecap:round;stroke-linejoin:bevel;stroke-miterlimit:2.4;-inkscape-stroke:hairline;paint-order:fill markers stroke"
       id="rect2902"
       width="10"
       height="3"
       x="387"
       y="216" />
    <rect
       style="vector-effect:non-scaling-stroke;fill:none;stroke:#000000;stroke-width:0.264583;stroke-linecap:round;stroke-linejoin:bevel;stroke-miterlimit:2.4;-inkscape-stroke:hairline;paint-order:fill markers stroke"
       id="rect2902-1-0-6"
       width="10"
       height="3"
       x="223"
       y="193" />
  </g>
</svg>
