<?xml version="1.0" encoding="UTF-8" standalone="no"?>
<!-- Created with Inkscape (http://www.inkscape.org/) -->

<svg
   width="200mm"
   height="300mm"
   viewBox="0 0 200 300"
   version="1.1"
   id="svg5"
   xmlns="http://www.w3.org/2000/svg"
   xmlns:svg="http://www.w3.org/2000/svg">
  <defs
     id="defs2" />
  <g
     id="layer1"
     transform="translate(-840.00001)">
    <path
       id="rect236-6-1"
       style="vector-effect:non-scaling-stroke;fill:none;stroke:#000000;stroke-width:0.279356;stroke-linecap:round;stroke-linejoin:bevel;stroke-miterlimit:2.4;stroke-dasharray:none;-inkscape-stroke:hairline;paint-order:fill markers stroke"
       d="m 842.99999,149.49997 v 21.25038 h 2.99982 v 20.99975 h -2.99982 v 20.99975 h 2.99982 v 21.00027 h -2.99982 v 20.99975 h 2.99982 v 21.00027 h -2.99982 V 297 h 21.25039 v -2.99981 h 20.99975 V 297 h 20.99975 v -2.99981 h 21.00027 V 297 h 20.99975 v -2.99981 h 21.00027 V 297 h 21.24982 v -21.25038 h -2.9998 v -20.99975 h 2.9998 v -20.99975 h -2.9998 v -21.00027 h 2.9998 V 191.7501 h -2.9998 v -21.00027 h 2.9998 v -21.24986 h -21.25034 v 2.99981 H 948.2499 v -2.99981 h -20.99975 v 2.99981 h -21.00027 v -2.99981 h -20.99975 v 2.99981 h -21.00027 v -2.99981 z" />
    <path
       id="rect236-6-1-9"
       style="vector-effect:non-scaling-stroke;fill:none;stroke:#000000;stroke-width:0.279356;stroke-linecap:round;stroke-linejoin:bevel;stroke-miterlimit:2.4;stroke-dasharray:none;-inkscape-stroke:hairline;paint-order:fill markers stroke"
       d="M 864.24986,1.9999356 V 23.250315 h 2.99982 v 20.99975 h -2.99982 v 20.99975 h 2.99982 v 21.00027 h -2.99982 v 20.999755 h 2.99982 v 21.00027 h -2.99982 v 21.24986 h 21.25039 v -2.99981 H 906.5 v 2.99981 h 20.99975 v -2.99981 h 21.00027 v 2.99981 h 20.99975 v -2.99981 h 21.0003 v 2.99981 h 21.24983 v -21.25038 h -2.9998 v -20.99975 h 2.9998 V 86.250085 h -2.9998 v -21.00027 h 2.9998 v -20.99975 h -2.9998 v -21.00027 h 2.9998 V 1.9999356 h -21.25033 v 2.99981 h -20.9998 v -2.99981 h -20.99975 v 2.99981 h -21.00027 v -2.99981 H 906.5 v 2.99981 h -21.00027 v -2.99981 z" />
  </g>
</svg>
